#!OML:ASF H:\Martial Arts Walks\Project 1\Capture day 1\Session 1\male.ASF
:FULLY-SPECIFIED
:DEGREES
1243
root -6.11495 12.0615 32.6457 -169.257 -70.0563 175.421
lowerback 20.3466 6.44907 -2.79505
upperback -1.43834 7.12823 -4.53379
thorax -12.7776 3.22167 -5.7089
lowerneck -0.428606 15.4011 4.29645
upperneck 9.60501 20.7064 -3.78679
head 4.19126 10.2142 -1.03377
rclavicle -2.32578e-014 -3.65764e-014
rhumerus -50.2147 27.9093 -84.0837
rradius 107.237
rwrist 5.18731
rhand -22.8326 -38.6772
rfingers 7.12502
rthumb 3.60479 -68.6265
lclavicle -2.32578e-014 -3.65764e-014
lhumerus -17.9305 -30.7707 76.8585
lradius 115.915
lwrist 28.4417
lhand -17.2552 8.71096
lfingers 7.12502
lthumb 8.98909 38.4994
rfemur -59.7625 -32.5918 2.73844
rtibia 94.9932
rfoot -34.2419 4.8155
rtoes -27.3697
lfemur -53.6508 23.558 -3.31606
ltibia 90.3297
lfoot -35.8899 6.21961
ltoes -23.5798
1244
root -6.11422 12.0527 32.6487 -169.389 -70.0633 175.569
lowerback 20.265 6.41285 -2.9003
upperback -1.44706 7.07159 -4.45718
thorax -12.7683 3.20775 -5.53799
lowerneck -0.376332 15.4251 4.39844
upperneck 9.55098 20.7544 -3.98876
head 4.20484 10.2355 -1.11178
rclavicle -4.83047e-014 -7.95139e-015
rhumerus -50.2019 28.0292 -84.0366
rradius 107.196
rwrist 5.09453
rhand -22.9356 -38.6498
rfingers 7.12502
rthumb 3.50526 -68.6007
lclavicle -4.83047e-014 -7.95139e-015
lhumerus -17.9854 -30.5953 76.8607
lradius 115.935
lwrist 28.6467
lhand -17.1485 8.70416
lfingers 7.12502
lthumb 9.09204 38.4882
rfemur -59.8054 -32.4988 2.76508
rtibia 95.0862
rfoot -34.2589 4.66186
rtoes -27.5259
lfemur -53.7088 23.4978 -3.24021
ltibia 90.4723
lfoot -35.932 6.19638
ltoes -23.4995
1245
root -6.1134 12.0375 32.6557 -169.569 -70.091 175.801
lowerback 20.2229 6.38296 -2.82273
upperback -1.47941 7.05764 -4.44238
thorax -12.7743 3.19804 -5.55777
lowerneck -0.445054 15.4434 4.54444
upperneck 9.68366 20.782 -4.03747
head 4.29265 10.2479 -1.13122
rclavicle 1.63003e-014 -3.49861e-014
rhumerus -50.1896 27.9589 -84.0225
rradius 107.119
rwrist 5.07038
rhand -22.6024 -38.3831
rfingers 7.12502
rthumb 3.82708 -68.3285
lclavicle 1.63003e-014 -3.49861e-014
lhumerus -17.9846 -30.5682 76.8429
lradius 115.934
lwrist 28.8047
lhand -17.1729 8.81771
lfingers 7.12502
lthumb 9.06848 38.6028
rfemur -59.9143 -32.5112 2.83439
rtibia 95.1912
rfoot -34.2883 4.59389
rtoes -27.7292
lfemur -53.908 23.6065 -3.20271
ltibia 90.6655
lfoot -35.963 6.24675
ltoes -23.5924
1246
root -6.11143 12.0222 32.6621 -169.455 -70.156 175.679
lowerback 20.28 6.41103 -2.72764
upperback -1.50014 7.1038 -4.51305
thorax -12.8065 3.20785 -5.71342
lowerneck -0.519588 15.3997 4.39747
upperneck 9.71313 20.7054 -3.80793
head 4.26315 10.2124 -1.04006
rclavicle 4.37326e-014 -6.52014e-014
rhumerus -50.2751 27.6208 -83.9873
rradius 107.114
rwrist 5.08009
rhand -22.7875 -38.6853
rfingers 7.12502
rthumb 3.64831 -68.6339
lclavicle 4.37326e-014 -6.52014e-014
lhumerus -17.8851 -30.7999 76.8356
lradius 115.914
lwrist 28.9071
lhand -17.2735 8.73341
lfingers 7.12502
lthumb 8.97141 38.5227
rfemur -59.9844 -32.6024 2.74427
rtibia 95.3125
rfoot -34.2883 4.59394
rtoes -27.7412
lfemur -54.0659 23.5504 -3.27549
ltibia 90.836
lfoot -35.9832 6.23995
ltoes -23.489
1247
root -6.10914 12.0081 32.6662 -169.789 -70.1785 176.039
lowerback 20.2727 6.41674 -2.67434
upperback -1.5069 7.13555 -4.45549
thorax -12.8088 3.22272 -5.68757
lowerneck -0.513369 15.3443 4.51645
upperneck 9.63888 20.6487 -4.03905
head 4.27873 10.1814 -1.13324
rclavicle 6.75868e-015 8.74653e-015
rhumerus -50.3281 27.6878 -83.8965
rradius 107.148
rwrist 4.98043
rhand -23.0056 -38.7832
rfingers 7.12502
rthumb 3.43771 -68.7352
lclavicle 6.75868e-015 8.74653e-015
lhumerus -17.8504 -30.839 76.8558
lradius 115.925
lwrist 28.9504
lhand -17.3297 8.75495
lfingers 7.12502
lthumb 8.91721 38.5465
rfemur -60.0714 -32.586 2.87659
rtibia 95.4222
rfoot -34.3207 4.44851
rtoes -28.0347
lfemur -54.1963 23.5664 -3.13871
ltibia 91.0246
lfoot -36.0068 6.32787
ltoes -23.6334
1248
root -6.10613 11.9931 32.6723 -169.964 -70.2535 176.24
lowerback 20.3059 6.39655 -2.51394
upperback -1.53276 7.14335 -4.48491
thorax -12.8323 3.21368 -5.81854
lowerneck -0.568748 15.331 4.49868
upperneck 9.66279 20.6192 -3.91379
head 4.27685 10.1699 -1.08905
rclavicle 4.6118e-014 7.95139e-015
rhumerus -50.458 27.6193 -83.9198
rradius 107.185
rwrist 4.93936
rhand -22.8463 -38.6232
rfingers 7.12502
rthumb 3.59148 -68.5727
lclavicle 4.6118e-014 7.95139e-015
lhumerus -17.8195 -30.9487 76.8458
lradius 115.943
lwrist 28.8935
lhand -17.3664 8.89471
lfingers 7.12502
lthumb 8.88182 38.6878
rfemur -60.1625 -32.657 2.93194
rtibia 95.5341
rfoot -34.3134 4.5405
rtoes -27.8814
lfemur -54.3901 23.5141 -3.08642
ltibia 91.2096
lfoot -36.0208 6.45664
ltoes -23.7253
1249
root -6.10397 11.9795 32.6779 -170.252 -70.3281 176.592
lowerback 20.2317 6.33057 -2.47877
upperback -1.53914 7.08449 -4.39879
thorax -12.8077 3.19118 -5.71401
lowerneck -0.541478 15.3726 4.33542
upperneck 9.54793 20.6742 -3.87481
head 4.20673 10.1961 -1.06017
rclavicle 6.12257e-014 -4.53229e-014
rhumerus -50.443 27.7627 -83.8604
rradius 107.169
rwrist 4.9344
rhand -22.6873 -38.5924
rfingers 7.12502
rthumb 3.74508 -68.5392
lclavicle 6.12257e-014 -4.53229e-014
lhumerus -17.8755 -30.7895 76.8843
lradius 115.961
lwrist 28.6799
lhand -17.4191 8.849
lfingers 7.12502
lthumb 8.83096 38.6442
rfemur -60.2614 -32.7345 3.07378
rtibia 95.6363
rfoot -34.3643 4.3051
rtoes -28.377
lfemur -54.5813 23.4583 -2.95371
ltibia 91.3851
lfoot -36.0506 6.35259
ltoes -23.6075
1250
root -6.10073 11.9658 32.6822 -170.062 -70.4191 176.366
lowerback 20.2159 6.28992 -2.56157
upperback -1.50329 7.01227 -4.3857
thorax -12.7741 3.16475 -5.62567
lowerneck -0.601318 15.4008 4.36148
upperneck 9.587 20.7159 -3.91963
head 4.24357 10.2142 -1.06709
rclavicle -2.48481e-014 -3.49861e-014
rhumerus -50.3753 27.8089 -83.7525
rradius 107.136
rwrist 4.94929
rhand -22.5112 -38.3443
rfingers 7.12502
rthumb 3.91513 -68.2881
lclavicle -2.48481e-014 -3.49861e-014
lhumerus -17.8589 -30.6963 76.9003
lradius 115.954
lwrist 28.4209
lhand -17.4012 8.73008
lfingers 7.12502
lthumb 8.84824 38.5246
rfemur -60.2864 -32.8708 2.94238
rtibia 95.7552
rfoot -34.381 4.31365
rtoes -28.4189
lfemur -54.7015 23.3151 -3.03462
ltibia 91.526
lfoot -36.0625 6.50598
ltoes -23.8402
